Coordinates
version=1
nRows=65
nColumns=12
inDegrees=yes

Units are S.I. units (second, meters, Newtons, ...)
Angles are in degrees

endheader
time	SC_y	SC_z	SC_x	AC_y	AC_z	AC_x	GH_y	GH_z	GH_yy	EL_x	PS_y
       0.0              -50.27          21.33          62.37          43.44          -11.6         -1.259         -88.22          25.44         -95.46          105.2          133.7
   0.02821              -50.27          21.32          62.37          43.44          -11.6         -1.261         -88.21          25.44         -95.46          105.2          133.6
   0.05642              -50.26          21.32          62.37          43.45          -11.6         -1.263          -88.2          25.44         -95.46          105.2          133.6
   0.08463              -50.26          21.32          62.37          43.45          -11.6         -1.265         -88.19          25.44         -95.46          105.2          133.6
    0.1128              -50.25          21.31          62.37          43.45          -11.6         -1.267         -88.18          25.44         -95.46          105.2          133.6
    0.1411              -50.25          21.31          62.37          43.45         -11.61          -1.27         -88.17          25.44         -95.46          105.1          133.6
    0.1693              -50.24          21.31          62.37          43.45         -11.61         -1.272         -88.16          25.44         -95.46          105.1          133.6
    0.1975              -50.23           21.3          62.37          43.46         -11.61         -1.275         -88.14          25.44         -95.46          105.1          133.6
    0.2257              -50.22           21.3          62.37          43.46         -11.61         -1.278         -88.13          25.44         -95.46          105.1          133.6
    0.2539              -50.22           21.3          62.36          43.46         -11.61         -1.281         -88.12          25.44         -95.47          105.0          133.6
    0.2821              -50.21          21.29          62.36          43.46         -11.61         -1.285          -88.1          25.44         -95.47          105.0          133.6
    0.3103               -50.2          21.29          62.36          43.47         -11.61         -1.289         -88.08          25.44         -95.47          105.0          133.6
    0.3385              -50.19          21.28          62.36          43.47         -11.62         -1.293         -88.06          25.44         -95.47          105.0          133.5
    0.3667              -50.18          21.27          62.36          43.47         -11.62         -1.297         -88.04          25.44         -95.47          104.9          133.5
    0.3949              -50.16          21.27          62.36          43.48         -11.62         -1.302         -88.02          25.44         -95.47          104.9          133.5
    0.4232              -50.15          21.26          62.35          43.48         -11.62         -1.307          -88.0          25.44         -95.48          104.9          133.5
    0.4514              -50.14          21.25          62.35          43.49         -11.62         -1.312         -87.97          25.44         -95.48          104.8          133.5
    0.4796              -50.12          21.25          62.35          43.49         -11.63         -1.318         -87.94          25.44         -95.48          104.8          133.5
    0.5078               -50.1          21.24          62.34           43.5         -11.63         -1.325         -87.91          25.44         -95.48          104.7          133.4
     0.536              -50.08          21.23          62.34           43.5         -11.63         -1.332         -87.88          25.45         -95.49          104.7          133.4
    0.5642              -50.06          21.22          62.34          43.51         -11.64          -1.34         -87.84          25.45         -95.49          104.6          133.4
    0.5924              -50.04           21.2          62.33          43.52         -11.64         -1.349          -87.8          25.45         -95.49          104.6          133.4
    0.6206              -50.02          21.19          62.33          43.53         -11.65         -1.358         -87.76          25.45          -95.5          104.5          133.3
    0.6488              -49.99          21.18          62.32          43.54         -11.65         -1.369         -87.71          25.45          -95.5          104.4          133.3
    0.6771              -49.96          21.16          62.32          43.55         -11.66         -1.381         -87.65          25.45         -95.51          104.3          133.2
    0.7053              -49.92          21.14          62.31          43.56         -11.66         -1.394         -87.59          25.45         -95.51          104.2          133.2
    0.7335              -49.89          21.12          62.31          43.57         -11.67         -1.409         -87.52          25.46         -95.52          104.1          133.2
    0.7617              -49.84           21.1           62.3          43.58         -11.68         -1.426         -87.45          25.46         -95.52          104.0          133.1
    0.7899              -49.79          21.07          62.29           43.6         -11.68         -1.445         -87.36          25.46         -95.53          103.9          133.0
    0.8181              -49.74          21.04          62.28          43.62         -11.69         -1.466         -87.26          25.46         -95.54          103.7          133.0
    0.8463              -49.68          21.01          62.27          43.64          -11.7          -1.49         -87.15          25.47         -95.55          103.5          132.9
    0.8745               -49.6          20.97          62.26          43.66         -11.72         -1.518         -87.02          25.47         -95.56          103.3          132.8
    0.9027              -49.52          20.93          62.24          43.69         -11.73         -1.551         -86.87          25.47         -95.57          103.1          132.7
    0.9309              -49.42          20.88          62.23          43.72         -11.75         -1.588         -86.69          25.48         -95.59          102.8          132.6
    0.9592              -49.31          20.82          62.21          43.76         -11.77         -1.632         -86.49          25.48         -95.61          102.5          132.4
    0.9874              -49.18          20.74          62.18           43.8         -11.79         -1.684         -86.25          25.49         -95.63          102.1          132.2
     1.016              -49.02          20.66          62.15          43.85         -11.82         -1.746         -85.96           25.5         -95.65          101.7          132.0
     1.044              -48.83          20.56          62.12          43.91         -11.85          -1.82         -85.62          25.51         -95.68          101.1          131.8
     1.072               -48.6          20.44          62.08          43.99         -11.89         -1.909         -85.21          25.52         -95.72          100.5          131.5
       1.1              -48.31          20.29          62.03          44.08         -11.94         -2.019          -84.7          25.53         -95.76          99.66          131.1
     1.128              -47.97           20.1          61.97          44.19          -12.0         -2.153         -84.08          25.55         -95.82          98.68          130.7
     1.157              -47.53          19.87          61.89          44.33         -12.08         -2.321          -83.3          25.57         -95.88          97.45          130.1
     1.185              -46.99          19.58           61.8          44.51         -12.17         -2.533         -82.32           25.6         -95.97           95.9          129.4
     1.213              -46.29          19.22          61.68          44.74         -12.29         -2.802         -81.07          25.64         -96.08          93.94          128.6
     1.241               -45.4          18.75          61.52          45.02         -12.45         -3.147         -79.48          25.68         -96.21          91.42          127.4
     1.269              -44.26          18.14          61.32           45.4         -12.65         -3.589         -77.43          25.74         -96.39          88.19          126.0
     1.298              -42.81          17.37          61.07          45.87          -12.9         -4.154         -74.81          25.81         -96.62          84.06          124.1
     1.326              -40.98           16.4          60.75          46.46         -13.22         -4.864         -71.52          25.91          -96.9          78.87          121.8
     1.354              -38.74          15.21          60.35          47.19         -13.61          -5.73         -67.52          26.02         -97.25          72.55          118.9
     1.382              -36.16          13.84           59.9          48.03         -14.06         -6.733         -62.87          26.15         -97.66          65.22          115.6
     1.411              -33.36          12.36          59.41          48.94         -14.55         -7.819         -57.84          26.29         -98.09          57.29          112.0
     1.439              -30.55          10.87          58.92          49.85         -15.03         -8.906         -52.81          26.44         -98.53          49.35          108.4
     1.467              -27.97          9.502          58.47          50.69         -15.48         -9.909         -48.16          26.57         -98.93          42.02          105.1
     1.495              -25.74          8.319          58.07          51.42         -15.87         -10.77         -44.15          26.68         -99.28           35.7          102.3
     1.523               -23.9          7.349          57.75          52.01         -16.19         -11.48         -40.87          26.77         -99.56          30.51          99.92
     1.552              -22.45          6.576           57.5          52.48         -16.45         -12.05         -38.25          26.85         -99.79          26.38          98.06
      1.58              -21.31          5.972           57.3          52.85         -16.64         -12.49          -36.2           26.9         -99.97          23.15           96.6
     1.608              -20.42          5.501          57.14          53.14          -16.8         -12.84         -34.61          26.95         -100.1          20.64          95.46
     1.636              -19.72          5.133          57.02          53.37         -16.92         -13.11         -33.36          26.99         -100.2          18.67          94.58
     1.664              -19.18          4.844          56.93          53.55         -17.02         -13.32         -32.38          27.01         -100.3          17.12          93.88
     1.693              -18.74          4.614          56.85          53.69         -17.09         -13.49          -31.6          27.03         -100.4           15.9          93.32
     1.721               -18.4          4.429          56.79           53.8         -17.15         -13.62         -30.98          27.05         -100.4          14.91          92.88
     1.749              -18.12           4.28          56.74          53.89          -17.2         -13.73         -30.47          27.07         -100.5          14.11          92.52
     1.777              -17.88          4.158           56.7          53.97         -17.24         -13.82         -30.06          27.08         -100.5          13.46          92.22
     1.805              -17.69          4.057          56.67          54.03         -17.27         -13.89         -29.71          27.09         -100.5          12.92          91.98
